<svg id="Calque_1" data-name="Calque 1" xmlns="http://www.w3.org/2000/svg" viewBox="0 0 25.63 37.81"><defs><style>.cls-1{fill:#fff;}</style></defs><title>Plan de travail 1</title><path class="cls-1" d="M19.31,28.84a3.08,3.08,0,0,1-2.22-.95l-4.85-5a1,1,0,1,1,1.48-1.43l.47.48,4.38,4.5a1,1,0,0,0,1.15.24,1,1,0,0,0,.64-1l-.16-4.93h0a10.67,10.67,0,0,0-1.66-5.2A2.83,2.83,0,0,1,18.27,13a5.85,5.85,0,0,0,.41-2.13A6.48,6.48,0,0,0,12,4.64a6.47,6.47,0,0,0-6.69,6.23A5.84,5.84,0,0,0,5.69,13a2.8,2.8,0,0,1-.26,2.56,10.91,10.91,0,0,0-1.68,5.89,10.16,10.16,0,0,0,4.06,8.39h0l0,0a7.3,7.3,0,0,0,1.37.75L18,35.46a1.67,1.67,0,0,0,.84.22,1.77,1.77,0,0,0,.91-.26,1.75,1.75,0,0,0,.83-1.54l-.17-5.27A3,3,0,0,1,19.31,28.84ZM6.87,11.7c0-2.23,1.22-4,2.73-4a2.35,2.35,0,0,1,1.91,1.16.53.53,0,0,0,.86,0,2.35,2.35,0,0,1,1.91-1.16c1.51,0,2.74,1.8,2.74,4s-1.5,4.4-5.08,4.4S6.87,13.93,6.87,11.7Z"/><path class="cls-1" d="M14.44,10.45c-.59,0-1.11.62-1.31.9a.26.26,0,0,0,0,.29c.2.28.72.9,1.31.9s1.11-.62,1.32-.9a.26.26,0,0,0,0-.29C15.55,11.07,15,10.45,14.44,10.45Z"/><path class="cls-1" d="M9.44,10.45c-.6,0-1.11.62-1.32.9a.26.26,0,0,0,0,.29c.21.28.72.9,1.32.9s1.11-.62,1.31-.9a.26.26,0,0,0,0-.29C10.55,11.07,10,10.45,9.44,10.45Z"/><path class="cls-1" d="M12.07,12.13a.24.24,0,0,0-.26,0c-.26.17-.81.59-.81,1.07a7.4,7.4,0,0,0,.83,2.15.12.12,0,0,0,.22,0,7.4,7.4,0,0,0,.83-2.15C12.88,12.72,12.33,12.3,12.07,12.13Z"/></svg>